<?xml version="1.0" encoding="utf-8"?>
<!-- Generator: Adobe Illustrator 22.0.1, SVG Export Plug-In . SVG Version: 6.00 Build 0)  -->
<svg version="1.1" id="图层_1" xmlns="http://www.w3.org/2000/svg" xmlns:xlink="http://www.w3.org/1999/xlink" x="0px" y="0px"
	 viewBox="0 0 221.1 174.5" style="enable-background:new 0 0 221.1 174.5;" xml:space="preserve">
<style type="text/css">
	.st0{fill:none;stroke:#000000;stroke-width:10.7277;stroke-linecap:round;stroke-miterlimit:10;}
</style>
<polyline class="st0" points="65.9,35.9 34.1,60.9 65.9,84.8 "/>
<polyline class="st0" points="150.5,84.8 182.4,59.8 150.5,35.9 "/>
<g>
	<path d="M108.2,44.3c8.9,0,16.1,7.2,16.1,16.1s-7.2,16.1-16.1,16.1s-16.1-7.2-16.1-16.1S99.4,44.3,108.2,44.3 M108.2,33.6
		c-14.8,0-26.8,12-26.8,26.8c0,14.8,12,26.8,26.8,26.8s26.8-12,26.8-26.8C135,45.6,123,33.6,108.2,33.6L108.2,33.6z"/>
</g>
<circle cx="108.2" cy="60.4" r="5.6"/>
<g>
	<path d="M27.4,137.6c0-8.1,6.1-13.6,13.4-13.6c7.8,0,11.2,5,12.1,8.7l-5.4,1.7c-0.4-1.8-2-4.8-6.6-4.8c-3.5,0-7.4,2.5-7.4,7.9
		c0,4.9,3.6,7.7,7.5,7.7c4.5,0,6.3-3,6.8-4.9l5.5,1.6c-0.8,3.6-4.3,9.1-12.3,9.1C33.4,151.1,27.4,145.7,27.4,137.6z"/>
	<path d="M77.6,124.1c7.3,0,13.4,5.3,13.4,13.5c0,8.2-6.2,13.5-13.4,13.5c-7.3,0-13.5-5.3-13.5-13.5
		C64.2,129.4,70.3,124.1,77.6,124.1z M77.6,145.4c3.6,0,7.5-2.4,7.5-7.8c0-5.4-3.9-7.9-7.5-7.9c-3.6,0-7.5,2.4-7.5,7.9
		C70.1,143,74,145.4,77.6,145.4z"/>
	<path d="M104,150.5v-25.9h9.4c7.8,0,13,5,13,13s-5.2,12.9-13,12.9H104z M113.1,145.1c4,0,7.2-2.3,7.2-7.5c0-5.2-3.3-7.5-7.2-7.5
		h-3.4v15H113.1z"/>
	<path d="M139.2,150.5v-25.9h16.4v5.4H145v4.9h9.6v5.1H145v5h10.7v5.5H139.2z"/>
	<path d="M185.8,124.6h6.1l-9.5,25.9h-6l-9.5-25.9h6.4l6.2,18.2L185.8,124.6z"/>
</g>
<g>
</g>
<g>
</g>
<g>
</g>
<g>
</g>
<g>
</g>
<g>
</g>
</svg>
