<?xml version="1.0" encoding="UTF-8"?>
<svg width="191px" height="120px" viewBox="0 0 191 120" version="1.1" xmlns="http://www.w3.org/2000/svg" xmlns:xlink="http://www.w3.org/1999/xlink">
    <!-- Generator: Sketch 48.2 (47327) - http://www.bohemiancoding.com/sketch -->
    <title>icon2</title>
    <desc>Created with Sketch.</desc>
    <defs>
        <polygon id="path-1" points="0.000594190463 0.921686747 97.3555 0.921686747 97.3555 151.506499 0.000594190463 151.506499"></polygon>
        <polygon id="path-3" points="0.01052 0.277788235 7.21052 0.277788235 7.21052 62 0.01052 62"></polygon>
    </defs>
    <g id="Website" stroke="none" stroke-width="1" fill="none" fill-rule="evenodd" transform="translate(-932.000000, -1014.000000)">
        <g id="icon2" transform="translate(900.000000, 977.000000)">
            <rect id="Rectangle-4" x="0" y="10" width="245" height="178"></rect>
            <g transform="translate(128.000000, 97.500000) rotate(60.000000) translate(-128.000000, -97.500000) translate(79.000000, -12.000000)">
                <g id="Group-3" transform="translate(0.000000, -0.000000)">
                    <mask id="mask-2" fill="white">
                        <use xlink:href="#path-1"></use>
                    </mask>
                    <g id="Clip-2"></g>
                    <path d="M88.62645,141.275776 L74.1797833,128.998908 C77.1901167,122.095475 79.3681167,114.854704 80.6697833,107.431439 C80.8457833,106.998246 80.9411167,106.535559 80.9447833,106.067342 C81.49295,102.859872 81.91645,99.5602337 82.2097833,96.1868602 C88.40645,101.716981 90.0381167,107.523607 90.0381167,128.46433 C90.0161167,132.772294 89.5486167,137.065511 88.6447833,141.275776 L88.62645,141.275776 Z M61.5297833,136.059029 L52.3631167,136.059029 L52.3631167,108.076619 C62.1897833,108.076619 69.2297833,108.500595 72.9312833,108.86927 C70.58645,120.076981 66.6631167,129.644089 61.5297833,136.059029 Z M35.8631167,136.059029 C30.7481167,129.644089 26.8247833,120.058547 24.4781167,108.86927 C28.1447833,108.519029 35.22145,108.150354 45.0462833,108.076619 L45.0462833,136.059029 L35.8631167,136.059029 Z M8.74811667,141.275776 C7.84428333,137.034173 7.38228333,132.709619 7.37311667,128.372161 C7.37311667,107.431439 9.00478333,101.569511 15.20145,96.0946916 C15.4947833,99.4680651 15.91645,102.767704 16.46645,105.975173 C16.4701167,106.44339 16.5636167,106.906077 16.74145,107.33927 C18.0412833,114.762535 20.2192833,122.003306 23.23145,128.90674 L8.74811667,141.275776 Z M37.2546167,25.3091494 C41.0202833,24.5588964 44.8592833,24.2492096 48.69645,24.3874627 C52.4841167,24.2860771 56.2717833,24.6068241 59.9897833,25.3460169 C67.4697833,40.6644506 75.38795,63.7619205 75.38795,84.3339687 C75.3897833,90.0945108 74.99195,95.8476795 74.1981167,101.551077 C72.73145,101.403607 71.0246167,101.293005 69.10145,101.182402 C64.5181167,100.905896 58.6697833,100.758427 52.3631167,100.703125 L52.3631167,89.0714386 C52.3631167,87.0363542 50.72045,85.3846916 48.69645,85.3846916 C46.6706167,85.3846916 45.0297833,87.0363542 45.0297833,89.0714386 L45.0297833,100.721559 C38.7231167,100.721559 32.8747833,100.942764 28.29145,101.200836 C26.4581167,101.311439 24.6247833,101.422041 23.1947833,101.569511 C22.3991167,95.8661133 22.0012833,90.1129446 22.0031167,84.3524024 C22.0031167,63.5960169 29.7947833,40.6091494 37.2197833,25.4013181 L37.2546167,25.3091494 Z M48.69645,8.29481205 C50.29145,9.10589639 52.82145,12.3133663 55.6997833,17.1798723 C53.7381167,17.0139687 51.44645,16.9402337 48.7331167,16.9402337 C46.0197833,16.9402337 43.58145,17.0324024 41.60145,17.198306 C44.4797833,12.3502337 47.04645,9.12433012 48.69645,8.29481205 Z M82.68645,87.1911976 L82.68645,84.3339687 C82.68645,64.2043301 75.1331167,39.0607157 66.46145,21.6592699 C66.34595,21.1689325 66.1131167,20.7136193 65.7831167,20.332041 C59.87795,8.75565542 53.4997833,0.921318072 48.69645,0.921318072 C42.5181167,0.921318072 35.8631167,11.5575831 31.26145,20.7560169 C31.16795,20.9090169 31.0872833,21.0693904 31.0231167,21.235294 C29.3731167,24.5718 27.9981167,27.6686675 27.02645,29.9728843 C19.16145,48.6462578 14.6697833,68.4625229 14.6697833,84.3524024 L14.6697833,87.2096313 C3.02811667,95.7997518 0.00311666667,101.846017 0.00311666667,128.445896 C-0.06105,135.482053 1.09945,142.475812 3.43145,149.110113 C4.19228333,150.995884 6.32995,151.908354 8.20728333,151.143354 C8.56295,150.995884 8.89295,150.7968 9.18811667,150.547945 L26.6597833,135.800957 C28.0237833,138.105173 29.5876167,140.282198 31.33295,142.308065 C32.0296167,143.104402 33.0306167,143.559716 34.08295,143.561559 L45.0297833,143.561559 L45.0297833,147.819752 C45.0297833,149.85668 46.6706167,151.506499 48.69645,151.506499 C50.72045,151.506499 52.3631167,149.85668 52.3631167,147.819752 L52.3631167,143.432523 L63.2531167,143.432523 C64.30545,143.43068 65.30645,142.975366 66.0031167,142.179029 C67.75395,140.160535 69.3251167,137.989041 70.69645,135.690354 L88.1681167,150.437342 C89.7191167,151.747981 92.03095,151.54521 93.3326167,149.985716 C93.5801167,149.690776 93.77995,149.357125 93.9247833,148.999511 C96.2567833,142.36521 97.4172833,135.371451 97.3531167,128.335294 C97.3531167,101.809149 94.3262833,95.7813181 82.68645,87.1911976 Z" id="Fill-1" fill="#000000" mask="url(#mask-2)"></path>
                </g>
                <g id="Group-6" transform="translate(45.000000, 157.000000)">
                    <mask id="mask-4" fill="white">
                        <use xlink:href="#path-3"></use>
                    </mask>
                    <g id="Clip-5"></g>
                    <path d="M3.61052,0.277788235 C1.62332,0.277788235 0.01052,1.93802353 0.01052,3.98367059 L0.01052,58.2952294 C0.01052,60.3408765 1.62332,62.0011118 3.61052,62.0011118 C5.59772,62.0011118 7.21052,60.3408765 7.21052,58.2952294 L7.21052,3.98367059 C7.21052,1.93802353 5.59772,0.277788235 3.61052,0.277788235" id="Fill-4" fill="#FF2F92" mask="url(#mask-4)"></path>
                </g>
                <path d="M34.5,149 C32.568,149 31,150.674766 31,152.738318 L31,177.261682 C31,179.327103 32.568,181 34.5,181 C36.432,181 38,179.327103 38,177.261682 L38,152.738318 C38,150.674766 36.432,149 34.5,149" id="Fill-7" fill="#FF2F92"></path>
                <path d="M62.5,149 C60.568,149 59,150.674766 59,152.738318 L59,177.261682 C59,179.327103 60.568,181 62.5,181 C64.43375,181 66,179.327103 66,177.261682 L66,152.738318 C66,150.674766 64.43375,149 62.5,149" id="Fill-9" fill="#FF2F92"></path>
                <path d="M48.5,51.4426322 C53.5112486,51.4426322 57.575928,55.5054556 57.575928,60.5185602 C57.575928,65.5298088 53.5112486,69.5944882 48.5,69.5944882 C43.4868954,69.5944882 39.424072,65.5298088 39.424072,60.5185602 C39.424072,55.5054556 43.4868954,51.4426322 48.5,51.4426322 M48.5,77 C57.6130484,77 65,69.6130484 65,60.5 C65,51.3869516 57.6130484,44 48.5,44 C39.3869516,44 32,51.3869516 32,60.5 C32.0111361,69.6074803 39.3906637,76.9888639 48.5,77" id="Fill-11" fill="#0433FF"></path>
            </g>
        </g>
    </g>
</svg>