<?xml version="1.0" encoding="UTF-8"?>
<svg width="180px" height="180px" viewBox="0 0 180 180" version="1.1" xmlns="http://www.w3.org/2000/svg" xmlns:xlink="http://www.w3.org/1999/xlink">
    <!-- Generator: Sketch 48.2 (47327) - http://www.bohemiancoding.com/sketch -->
    <title>logo-grad</title>
    <desc>Created with Sketch.</desc>
    <defs>
        <linearGradient x1="92.3337362%" y1="73.4016665%" x2="12.3790413%" y2="21.1958662%" id="linearGradient-1">
            <stop stop-color="#7F0AFF" offset="0%"></stop>
            <stop stop-color="#0433FF" offset="100%"></stop>
        </linearGradient>
        <polygon id="path-2" points="21.0002882 62.546784 56.5103836 62.546784 56.5103836 118 21.0002882 118"></polygon>
        <polygon id="path-4" points="0.253709655 0.548618397 35.7665369 0.548618397 35.7665369 56 0.253709655 56"></polygon>
    </defs>
    <g id="Website" stroke="none" stroke-width="1" fill="none" fill-rule="evenodd" transform="translate(-631.000000, -113.000000)">
        <g id="logo-grad" transform="translate(631.000000, 113.000000)">
            <g id="Group-3">
                <circle id="Oval-Copy-3" fill="url(#linearGradient-1)" cx="90" cy="90" r="90"></circle>
                <mask id="mask-3" fill="white">
                    <use xlink:href="#path-2"></use>
                </mask>
                <g id="Clip-2"></g>
                <path d="M51.9672961,118 C50.8691548,118 49.765249,117.598144 48.891924,116.785696 L21.0002882,90.836864 L48.8227498,63.825152 C50.6328094,62.072128 53.503541,62.127456 55.2444264,63.956192 C56.9795473,65.782016 56.9247843,68.688192 55.1147246,70.444128 L34.2529224,90.694176 L55.0455504,110.03568 C56.8901972,111.75376 57.0083699,114.657024 55.3107184,116.520704 C54.4143353,117.502048 53.1922568,118 51.9672961,118" id="Fill-1" fill="#FFFFFF" mask="url(#mask-3)"></path>
            </g>
            <g id="Group-6" transform="translate(122.000000, 62.000000)">
                <mask id="mask-5" fill="white">
                    <use xlink:href="#path-4"></use>
                </mask>
                <g id="Clip-5"></g>
                <path d="M4.79607033,56 C3.60281444,56 2.41244082,55.528256 1.52182229,54.590592 C-0.216180848,52.764768 -0.158535636,49.858592 1.64864176,48.102656 L22.510444,27.852608 L1.72069827,8.511104 C-0.126830769,6.795936 -0.245003454,3.88976 1.4555303,2.02608 C3.15318179,0.168224 6.0267956,0.043008 7.87144239,1.761088 L35.7688427,27.70992 L7.9434989,54.721632 C7.06152716,55.574848 5.92879874,56 4.79607033,56" id="Fill-4" fill="#FFFFFF" mask="url(#mask-5)"></path>
            </g>
            <path d="M89.5014639,65 C75.4156381,65 64,76.4156381 64,90.4985361 C64,104.584362 75.4156381,116 89.5014639,116 C103.584362,116 115,104.584362 115,90.4985361 C115,76.4156381 103.584362,65 89.5014639,65 M89.5014639,75.2035134 C97.9336357,75.2035134 104.796487,82.0663643 104.796487,90.4985361 C104.796487,98.9336357 97.9336357,105.796487 89.5014639,105.796487 C81.0663643,105.796487 74.2064412,98.9336357 74.2064412,90.4985361 C74.2064412,82.0663643 81.0663643,75.2035134 89.5014639,75.2035134" id="Fill-7" fill="#FFFFFF"></path>
            <path d="M94,90 C94,92.7618523 91.7618523,95 89,95 C86.2381477,95 84,92.7618523 84,90 C84,87.2381477 86.2381477,85 89,85 C91.7618523,85 94,87.2381477 94,90" id="Fill-9" fill="#FFFFFF"></path>
        </g>
    </g>
</svg>